SplineFontDB: 1.0
FontName: FlagGothic
FullName: Flag Gothic
FamilyName: Flag
Weight: Medium
Copyright: Created by Egil Möller with PfaEdit 1.0 (http://pfaedit.sf.net)
Comments: 2002-5-9: Created.
Version: 001.000
ItalicAngle: 0
UnderlinePosition: -100
UnderlineWidth: 50
Ascent: 800
Descent: 200
FSType: 0
PfmFamily: 81
TTFWeight: 400
TTFWidth: 5
Panose: 4 10 5 3 6 0 0 10 0 0
LineGap: 90
VLineGap: 0

Encoding: iso8859_1
DisplaySize: -24
AntiAlias: 1
BeginChars: 256 191
StartChar: parenright
Encoding: 41 41
Width: 226
Flags: W
HStem: 777.72 18.1528<95 105>
VStem: 0 0<585.25 613.858> 161.929 23.3821<625 657>
Fore
0 112 m 1
 100 240 138 338 159 585 c 1
 189 864 0 819 0 585 c 1
 0 861 210 873 183 585 c 9
 105 1 l 17
 71.6943 68.6514 52.4639 98.9033 0 112 c 1
EndSplineSet
EndChar
StartChar: comma
Encoding: 44 44
Width: 328
Flags: W
HStem: 57.095 109.296<155 168>
Fore
54 0 m 1
 89.2554 54.0008 123.253 107.999 111 162 c 1
 297 198 354.238 7.06614 0 -204 c 1
 321 21 201 135 54 0 c 1
EndSplineSet
EndChar
StartChar: hyphen
Encoding: 45 45
Width: 337
Flags: W
Fore
0 390 m 1
 135 405 276 414 309 486 c 1
 299.168 457.788 280.724 425.861 288 405 c 1
 199.646 415.669 95.9425 394.882 0 390 c 1
EndSplineSet
EndChar
StartChar: period
Encoding: 46 46
Width: 301
Flags: W
HStem: 0 21G<19.9502 247>
Fore
247 0 m 17
 157 24 55.2549 107.785 0 210 c 1
 8.09766 155.598 25.9805 54.4033 19.9502 0 c 9
 247 0 l 17
EndSplineSet
EndChar
StartChar: slash
Encoding: 47 47
Width: 839
Flags: W
Fore
359.45 407.271 m 1
 169.015 74.9307 88.4717 75.7422 4.23047 35.8848 c 1
 61.1201 39.8643 110.711 27.9023 153 0 c 1
 235.601 158.459 305.808 281.633 380.745 406.197 c 1
 580.188 727.282 670.264 754.876 770.114 798.441 c 1
 707.986 791.666 599.052 750.553 544.206 765.547 c 1
 479.395 629.668 408.431 494.597 359.45 407.271 c 1
EndSplineSet
EndChar
StartChar: two
Encoding: 50 50
Width: 490
Flags: W
HStem: 0 21G<0 435>
VStem: 10.6685 6.934<638 652> 294 48<546.5 569.794>
Fore
87 516 m 1
 -147 705 285 966 294 546 c 1
 264 279 132.496 169.37 0 0 c 9
 435 0 l 17
 398.293 58.9425 393 102 396 177 c 1
 310.044 65.7217 273 48 60 30 c 1
 210 189 312 303 342 546 c 1
 333 1008 -180 732 87 516 c 1
EndSplineSet
MinimumDistance: x6,-1 
EndChar
StartChar: three
Encoding: 51 51
Width: 508
Flags: W
HStem: 2.63477 12.2051<146 162> 163.807 7.30974<33 40> 623.932 5.24371<78 84> 786.52 15.0205<178 194>
VStem: 2.54229 6.55111<114 130> 39.0557 9.20959<674 690> 334.547 48.9561<622 646> 392.872 57.9356<242 274>
Fore
105.35 636.609 m 1
 108.003 638.894 110.695 641.511 113.42 644.48 c 1
 110.727 641.383 108.031 638.771 105.35 636.609 c 1
105.35 636.609 m 1
 24.6874 567.136 -18.799 805.47 190.46 801.54 c 1
 462.24 797.12 413.02 479.12 254.66 477 c 1
 505.04 479.12 560.68 2.12012 154.08 2.63477 c 1
 -74.9004 2.12012 2.13965 277.72 83.46 125.08 c 1
 4.28027 256.52 -59.9199 14.8398 154.08 14.8398 c 1
 494.34 19.0801 421.58 472.76 241.82 475.94 c 1
 340.26 474.88 408.74 784.4 190.46 786.52 c 1
 -12.8013 786.52 41.9828 585.526 105.35 636.609 c 1
EndSplineSet
EndChar
StartChar: four
Encoding: 52 52
Width: 422
Flags: W
HStem: 782 20<348 372>
Fore
312 780 m 1
 220.77 681.147 137.157 574.089 0 525 c 1
 97.7623 517.865 178.086 496.981 252 471 c 1
 114.074 539.652 204 636 312 780 c 1
EndSplineSet
Ref: 49 N 1 0 0 1 147 0
EndChar
StartChar: six
Encoding: 54 54
Width: 406
Flags: W
HStem: 2 12<208 218>
VStem: 0 60.1733<350 387.548> 313.914 39.1428<130 162>
Fore
350 798 m 1
 35 795 -3 641 0 350 c 1
 6 137 60 2 219 2 c 1
 399 2 417 335 162 233 c 1
 373 308 339 18 219 14 c 1
 87 17 54 128 60 338 c 1
 66 851 244 816 308 633 c 1
 307.78 687.998 301.116 743.001 350 798 c 1
EndSplineSet
EndChar
StartChar: seven
Encoding: 55 55
Width: 595
Flags: W
HStem: 468.102 8.72726<215 227>
DStem: 510 780 546 801 302.34 462.403 318.952 456.558
Fore
292.781 447.783 m 1
 239.091 468.311 188.193 484.566 162 438 c 1
 189.596 491.739 246.021 481.49 302.34 462.403 c 1
309.039 441.52 m 1
 207 279 87 108 144 27 c 1
 88.6903 31.4453 39.2431 25.1067 0 0 c 1
 292.781 447.783 l 1
318.952 456.558 m 1
 373.122 436.933 424.528 414.123 447 438 c 1
 413.436 403.037 360.965 421.534 309.039 441.52 c 1
302.34 462.403 m 1
 510 780 l 1
 207 762 72 741 21 597 c 1
 28.2034 656 20.1987 715 0 774 c 9
 546 801 l 17
 318.952 456.558 l 1
EndSplineSet
MinimumDistance: x14,-1 
EndChar
StartChar: eight
Encoding: 56 56
Width: 382
Flags: W
VStem: 0 309<621.125 641.577> 0 315<224 272>
Fore
150.5 456 m 1
 104.5 427.5 57 408 60 246 c 1
 60 125.112 86.9639 24 159 24 c 0
 231.036 24 249 128.112 249 249 c 1
 243 411 193.11 435.111 150.5 456 c 1
152.5 501.5 m 1
 214.884 537 242.599 534 252 627 c 1
 256.516 709.677 228.036 780 156 780 c 0
 83.9639 780 54 703.8 54 621 c 1
 61.8718 520.455 115.275 516.875 152.5 501.5 c 1
186.5 477.5 m 1
 228.78 516.595 293.738 527.087 309 621 c 1
 309 720.36 239.784 801 154.5 801 c 0
 69.216 801 0 720.36 0 621 c 1
 29.1112 511.228 77.1847 504.529 119 478 c 1
 53.8922 440.743 0 390 0 247.5 c 1
 0 110.88 70.56 0 157.5 0 c 0
 244.44 0 315 110.88 315 247.5 c 0
 315 417 235.311 435.44 186.5 477.5 c 1
EndSplineSet
MinimumDistance: x15,-1 
EndChar
StartChar: at
Encoding: 64 64
Width: 501
Flags: W
HStem: -0.245076 9.41101<193 209> 577.747 10.5652<272 288>
VStem: 81 15<174.25 204.306> 425.387 18.4477<446 463>
Fore
0 252 m 1
 0 658 478 672 442 426 c 1
 420.38 276.43 392.239 162.675 465.47 68.2881 c 1
 423.772 60.1133 403.583 41.2295 365.677 -1 c 9
 424.08 426 l 17
 452 660 26 640 0 252 c 1
EndSplineSet
MinimumDistance: x1,-1 
Ref: 99 N 1 0 0 1 78 0
EndChar
StartChar: A
Encoding: 65 65
Width: 805
Flags: W
HStem: 0 21G<696 717>
DStem: 476.624 770.704 488 800 543.553 535.571 717 0 549.603 514.317 488 800 696 0 717 0
Fore
266.935 366.211 m 1
 321.757 439.418 390.846 508.708 543.553 535.571 c 1
 476.624 770.704 l 1
 401.411 642.087 322.77 517.607 266.935 366.211 c 1
231.129 252.48 m 1
 218.339 203.565 208.072 151.67 201 96 c 1
 117 96 57 72 0 0 c 1
 473 800 l 1
 488 800 l 9
 717 0 l 25
 696 0 l 17
 549.603 514.317 l 1
 398.138 489.425 298.336 371.313 231.129 252.48 c 1
EndSplineSet
MinimumDistance: x8,-1 
EndChar
StartChar: B
Encoding: 66 66
Width: 598
Flags: W
HStem: 0 21G<135 168> 447 0<204.5 231> 780 20<201 225>
VStem: 448.971 45.8371<240 256> 500.836 36.4898<621 637>
Fore
204 447 m 1
 567 447 513 0 135 0 c 1
 168 0 l 1
 567 0 618 444 225 447 c 1
 204 447 l 1
EndSplineSet
Ref: 80 S 1 0 0 1 0 -2
EndChar
StartChar: C
Encoding: 67 67
Width: 521
Flags: W
HStem: 4.86864 25.9254<196 206> 776.495 22.8302<258 274>
VStem: 2.94223 24.3046<323 371>
Fore
444 606 m 5
 402 645 365.185 654.126 297 657 c 5
 432 801 99 897 33 444 c 5
 -27 -69 381 -42 204 189 c 5
 282 135 315 126 378 123 c 5
 264 -105 -45 -9 9 441 c 5
 48 846 390 918 444 606 c 5
EndSplineSet
EndChar
StartChar: D
Encoding: 68 68
Width: 612
Flags: W
HStem: 0 21G<147 171> 782 20<201 225>
VStem: 505.764 38.7702<432 480>
Fore
252 801 m 13
 282 801 l 17
 712 752 573 -15 171 0 c 9
 147 0 l 21
 528 0 670 710 252 801 c 13
EndSplineSet
Ref: 73 N 1 0 0 1 0 0
EndChar
StartChar: E
Encoding: 69 69
Width: 554
Flags: W
HStem: 780 21<487 506> 782 20<201 225>
Fore
39 142 m 17
 163.705 309.741 209.015 338.062 366 364 c 9
 366 342 l 17
 225.567 316.689 162.235 278.289 39 114 c 9
 39 142 l 17
EndSplineSet
Ref: 70 S 1 0 0 1 0 0
EndChar
StartChar: F
Encoding: 70 70
Width: 560
Flags: W
HStem: 780 21<487 506> 782 20<201 225>
Fore
87 378 m 21
 228 558 318 606 444 615 c 13
 444 594 l 21
 332.997 589.747 228 528 87 351 c 13
 87 378 l 21
147 621 m 17
 202.018 710.005 336 804 507 801 c 9
 507 780 l 17
 366 777 246 723 147 594 c 9
 147 621 l 17
EndSplineSet
Ref: 73 N 1 0 0 1 0 0
EndChar
StartChar: G
Encoding: 71 71
Width: 565
Flags: W
HStem: 3.96494 24.149<206 209> 776.495 22.8302<258 274>
VStem: 3.34701 24.2765<311 375>
Fore
468 279 m 9
 285 -201 l 17
 261 -201 l 1
 339 81 l 1
 306 30 276 0 210 3.96494 c 1
 91.7938 6.0175 -26.0445 148.963 9 441 c 1
 48 846 390 918 444 606 c 1
 402 645 365.185 654.126 297 657 c 1
 432 801 99 897 33 444 c 1
 -1.72972 147.061 118 28 211 28 c 1
 384 51 333 273 207 318 c 9
 207 342 l 17
 274.989 301.279 399.613 257.541 468 279 c 9
EndSplineSet
EndChar
StartChar: H
Encoding: 72 72
Width: 604
Flags: W
HStem: 573.027 2.09351<471 488> 782 20<201 225 519 543>
Fore
136 330 m 21
 263.287 520.512 386.131 584.655 494 574 c 13
 494 574 l 17
 397.493 575.806 278.183 501.699 136 330 c 9
 136 330 l 21
EndSplineSet
Ref: 73 N 1 0 0 1 318 0
Ref: 73 N 1 0 0 1 0 0
EndChar
StartChar: I
Encoding: 73 73
Width: 306
Flags: W
HStem: 782 20G<201 225>
Fore
0 112 m 5
 137.105 263.207 168.107 562.388 201 802 c 13
 225 802 l 29
 105 1 l 21
 71.6943 68.6514 52.4639 98.9033 0 112 c 5
EndSplineSet
EndChar
StartChar: J
Encoding: 74 74
Width: 375
Flags: W
Fore
102 714 m 1
 231 663 150 411 0 -201 c 9
 24 -201 l 25
 273 801 l 17
 243 738 177 714 102 714 c 1
EndSplineSet
EndChar
StartChar: K
Encoding: 75 75
Width: 606
Flags: W
HStem: 782 20<201 225>
Fore
190.994 378.596 m 5
 161.463 334.698 132.997 283.001 108 228 c 13
 108 255 l 21
 186.428 449.218 304.421 566.39 441 573 c 5
 420.758 547.068 412.916 509.784 410 468 c 5
 365.669 556.662 283.104 506.91 205.198 398.99 c 5
205.198 398.99 m 5
 220.801 226.35 299.443 43.0055 372 21 c 13
 372 0 l 21
 239.115 80.8867 208.702 227.973 190.994 378.596 c 5
EndSplineSet
Ref: 73 S 1 0 0 1 0 0
EndChar
StartChar: L
Encoding: 76 76
Width: 543
Flags: W
HStem: 0 21G<118 136> 4.57766 17.5751<422 454> 72.796 15.649<182 198> 782 20<201 225>
Fore
510 12 m 17
 458 0 375.999 -1.51088 314 32 c 1
 186.511 89.092 144.627 93.9043 136 0 c 9
 118 0 l 17
 129.352 0.686262 93.4117 161.866 316 48 c 1
 416 11.1932 458 20 510 32 c 9
 510 12 l 17
EndSplineSet
Ref: 73 N 1 0 0 1 0 0
EndChar
StartChar: M
Encoding: 77 77
Width: 900
Flags: W
HStem: 782 20<498 522 810 834>
Fore
528 420 m 17
 667.995 517.355 702.792 552.174 780 738 c 9
 783 768 l 17
 732.705 628.709 643.662 488.439 501 420 c 9
 528 420 l 17
EndSplineSet
Ref: 73 N 1 0 0 1 609 0
Ref: 78 S 1 0 0 1 0 0
EndChar
StartChar: N
Encoding: 78 78
Width: 597
Flags: W
HStem: 779 20<498 522>
Fore
213 396 m 17
 352.995 493.355 387.792 528.174 465 714 c 9
 468 744 l 17
 417.705 604.709 328.662 464.44 186 396 c 9
 213 396 l 17
EndSplineSet
Ref: 73 N 1 0 0 1 297 -3
Ref: 74 N 1 0 0 1 0 0
EndChar
StartChar: O
Encoding: 79 79
Width: 616
Flags: W
HStem: 1.02832 25.1145<195 199>
VStem: 4.09893 23.8394<241 289> 529.868 10.9774<529 545>
Fore
492.354 699 m 1
 437.956 665 397.142 535 391.69 431 c 1
 413.735 787 152.909 827 52.2422 443 c 1
 -20.8936 146.061 78.9199 23 208.308 26 c 1
 536.171 14.1582 545.009 530.496 524 704 c 1
 586.336 348.685 476.975 -18.7363 199.078 1.02832 c 1
 42.8154 -1 -40.6426 165.286 27.8545 440 c 1
 119.237 845 452.6 871 492.354 699 c 1
EndSplineSet
EndChar
StartChar: P
Encoding: 80 80
Width: 598
Flags: W
HStem: 782 20<201 225>
VStem: 500.836 36.4898<623 639>
Fore
192 447 m 1
 606 465 585 789 243 798 c 9
 264 798 l 17
 645 786 624 447 225 447 c 1
 192 447 l 1
EndSplineSet
Ref: 73 S 1 0 0 1 0 0
EndChar
StartChar: Q
Encoding: 81 81
Width: 607
Flags: W
HStem: 1.02832 25.1145<195 199>
VStem: 4.09893 23.8394<241 289> 529.868 10.9774<529 545>
Fore
306 168 m 17
 361.84 145.402 437.962 117.761 546 30 c 1
 495 0 470.683 -23.5144 447 -126 c 1
 484.345 -33.5469 410.375 91.4725 303 153 c 9
 306 168 l 17
EndSplineSet
Ref: 79 N 1 0 0 1 0 0
EndChar
StartChar: R
Encoding: 82 82
Width: 598
Flags: W
HStem: 782 20<201 225>
VStem: 500.836 36.4898<623 639>
Fore
190.994 378.596 m 1
 208.702 227.973 239.115 80.8867 372 0 c 9
 372 21 l 17
 299.443 43.0055 220.801 226.35 205.198 398.99 c 1
 190.994 378.596 l 1
EndSplineSet
Ref: 80 N 1 0 0 1 0 0
EndChar
StartChar: S
Encoding: 83 83
Width: 544
Flags: W
HStem: 786 12.854<285.125 288.827>
VStem: 114 15<608 624>
Fore
486.963 729.24 m 1
 419.441 783.392 381.115 790.871 288.886 798.854 c 1
 222.259 800.781 117 762 114 624 c 1
 114 423 351 501 354 252 c 1
 347.851 110.548 297 66 198 69 c 1
 120 69 93 138 93 357 c 1
 54 159 42 99 0 84 c 1
 45 15 116.337 3.13281 184.128 0.901367 c 1
 321.662 14.6483 377.797 87.0285 378 252 c 1
 368.364 509.288 124.902 450.526 129 624 c 1
 125.035 729.503 203.03 780.63 285 786 c 1
 408.72 785.59 376.085 679.413 366.562 622.771 c 1
 402.174 660.733 404.355 716.531 486.963 729.24 c 1
EndSplineSet
MinimumDistance: x9,-1 
EndChar
StartChar: T
Encoding: 84 84
Width: 562
Flags: W
HStem: 702.047 17.9526<253 277>
Fore
18 714 m 1
 182.991 749.078 347.996 766.092 513 771 c 9
 513 750 l 17
 207.708 742.697 45 681 42 585 c 1
 42 636 45 675 18 714 c 1
EndSplineSet
Ref: 73 S 1 0 0 0.897628 52 0.102372
EndChar
StartChar: U
Encoding: 85 85
Width: 709
Flags: W
HStem: 10.3935 25.6118<108 122>
VStem: 1.51322 16.018<209 252>
Fore
108 678 m 9
 120 678 l 17
 -186 -96 270 -243 447 636 c 9
 459 633 l 17
 306 -234 -222 -174 108 678 c 9
579 804 m 9
 564 801 l 17
 183 -51 537 -102 609 102 c 1
 579 138 570 174 576 288 c 1
 549 99 246 -12 579 804 c 9
EndSplineSet
EndChar
StartChar: V
Encoding: 86 86
Width: 393
Flags: W
HStem: 0 21G<204 228>
Fore
218.001 66.7466 m 1
 333 615 l 9
 345 615 l 25
 228 0 l 25
 204 0 l 17
 171.107 239.612 140.105 538.793 3 690 c 1
 55.4639 703.097 74.6943 733.349 108 801 c 1
 218.001 66.7466 l 1
EndSplineSet
EndChar
StartChar: X
Encoding: 88 88
Width: 910
Flags: W
HStem: 0 21G<654 672>
Fore
410.001 407.5 m 1
 455.642 225.661 505.075 41.2217 672 0 c 9
 654 0 l 17
 498.76 16.1254 443.148 197.056 393.604 382.963 c 1
 328.052 283.999 251.946 158.967 162 0 c 1
 115.95 27.9929 61.9489 39.993 0 36 c 1
 91.7321 75.9858 179.439 75.1723 386.812 408.576 c 1
 336.466 599 287.979 786.951 141 801 c 9
 162 801 l 17
 313.039 776.641 358.984 610.514 403.094 435.038 c 1
 456.429 522.644 517.423 631.686 588 768 c 1
 647.723 752.959 766.347 794.204 834 801 c 1
 725.269 757.296 627.182 729.614 410.001 407.5 c 1
EndSplineSet
EndChar
StartChar: Y
Encoding: 89 89
Width: 889
Flags: W
Fore
410.001 407.5 m 5
 627.182 729.614 725.269 757.296 834 801 c 5
 766.347 794.204 647.723 752.959 588 768 c 5
 517.423 631.686 456.429 522.644 403.094 435.038 c 5
 358.984 610.514 313.039 776.641 162 801 c 13
 141 801 l 21
 287.979 786.951 336.466 599 386.812 408.576 c 5
 179.439 75.1723 91.7321 75.9858 0 36 c 5
 61.9489 39.993 115.95 27.9929 162 0 c 5
 251.946 158.967 328.396 282.537 410.001 407.5 c 5
EndSplineSet
EndChar
StartChar: Z
Encoding: 90 90
Width: 841
Flags: W
Fore
516 56 m 1
 360.646 56.0596 197.577 22.8135 21 -1 c 9
 24 13 l 17
 354 63 467.43 89.8809 492 185 c 1
 492 134 489 95 516 56 c 1
126 741 m 1
 281.353 740.941 444.423 774.187 621 798 c 9
 618 784 l 17
 288 734 174.57 707.119 150 612 c 1
 150 663 153 702 126 741 c 1
EndSplineSet
Ref: 47 N 1.00395 0 0 0.851505 -4.24717 74
EndChar
StartChar: bracketright
Encoding: 93 93
Width: 284
Flags: W
Fore
0 112 m 1
 219 426 162 586 78 644 c 1
 172 700 181.856 711.475 225 802 c 9
 105 1 l 17
 71.6943 68.6514 52.4639 98.9033 0 112 c 1
EndSplineSet
EndChar
StartChar: b
Encoding: 98 98
Width: 518
Flags: W
HStem: 1 0<127.5 157.521> 448 0<196.5 223> 782 20<201 225>
VStem: 440.971 45.8371<241 257>
Fore
196 448 m 1
 559 448 505 1 127 1 c 1
 160 1 l 1
 559 1 610 445 217 448 c 1
 196 448 l 1
EndSplineSet
Ref: 73 N 1 0 0 1 0 0
EndChar
StartChar: c
Encoding: 99 99
Width: 377
Flags: W
HStem: -0.245076 9.41101<115 131>
VStem: 3 15<174.25 204.306>
Fore
315 471 m 1
 279.996 419.997 267.39 349.959 270 267 c 1
 165 483 21 438 18 174 c 1
 10 0 180 -60 213 108 c 1
 218 -42 0 -51 3 174 c 1
 0 483 168 537 315 471 c 1
EndSplineSet
MinimumDistance: x2,-1 
EndChar
StartChar: d
Encoding: 100 100
Width: 513
Flags: W
HStem: 0 21G<269 290 336 350> 427 20G<326 359>
VStem: -0.606771 45.3625<192 208>
Fore
290 0 m 1
 -73 0 -19 447 359 447 c 1
 326 447 l 1
 -73 447 -124 3 269 0 c 1
 290 0 l 1
EndSplineSet
Ref: 124 N 1 0 0 1 324 0
EndChar
StartChar: e
Encoding: 101 101
Width: 376
Flags: W
HStem: 487.834 13.8041<223 240>
VStem: 0 48<210 242> 313.338 18.2079<430 436>
Fore
51 240 m 1
 642 465 51 669 48 228 c 1
 51 -135 228 84 105 159 c 1
 210 165 258 195 294 261 c 1
 231 -132 0 -24 0 231 c 1
 6 705 708 456 51 240 c 1
EndSplineSet
EndChar
StartChar: f
Encoding: 102 102
Width: 276
Flags: W
HStem: 776.956 25.0437<201 225>
Fore
47.8506 461.955 m 1
 108.896 485.983 169.948 497.638 231 501 c 9
 231 486.615 l 17
 118.042 481.612 57.8398 439.35 56.7305 373.59 c 1
 56.7305 408.524 57.8398 435.24 47.8506 461.955 c 1
EndSplineSet
Ref: 108 N 1 0 0 1.25218 0 -202.252
EndChar
StartChar: h
Encoding: 104 104
Width: 484
Flags: W
HStem: 489.658 9.026<306 313> 782 20<201 225>
Fore
150 348 m 1
 234 596 556 576 405 0 c 1
 378 102 309 117 264 129 c 1
 582 422 278 648 150 348 c 1
EndSplineSet
Ref: 73 N 1 0 0 1 0 0
EndChar
StartChar: k
Encoding: 107 107
Width: 436
Flags: W
HStem: 782 20<201 225>
Fore
186.119 329.84 m 1
 159.911 291.868 134.647 247.15 112.462 199.574 c 9
 112.462 222.93 l 17
 182.067 390.929 286.786 492.282 408 498 c 1
 390.035 475.568 383.075 443.317 380.487 407.175 c 1
 341.144 483.867 267.867 440.832 198.726 347.481 c 1
198.726 347.481 m 1
 212.573 198.147 282.368 39.5547 346.763 20.5195 c 9
 346.763 2.35449 l 17
 228.827 72.3213 201.835 199.552 186.119 329.84 c 1
EndSplineSet
Ref: 73 S 1 0 0 1 0 0
EndChar
StartChar: r
Encoding: 114 114
Width: 390
Flags: W
HStem: 488.516 12.4844<150.08 168>
Fore
135 378 m 1
 180 516 444 600 303 264 c 1
 297 303 282.168 392.081 228 399 c 1
 333 450 246 552 135 378 c 1
EndSplineSet
Ref: 73 N 0.746667 0 0 0.62422 0 0.37578
EndChar
StartChar: t
Encoding: 116 116
Width: 276
Flags: W
HStem: 782 20<201 225>
Fore
47.8506 461.955 m 5
 108.896 485.983 169.948 497.638 231 501 c 13
 231 486.615 l 21
 118.042 481.612 57.8398 439.35 56.7305 373.59 c 5
 56.7305 408.524 57.8398 435.24 47.8506 461.955 c 5
EndSplineSet
Ref: 108 N 1 0 0 1 0 0
EndChar
StartChar: bar
Encoding: 124 124
Width: 199
Flags: W
HStem: 0 21G<12 26>
Fore
2.12402 689 m 1
 74.9713 626.613 86 470 12 0 c 9
 26 0 l 25
 156.252 800 l 17
 93.0039 732.349 60.3838 702.097 2.12402 689 c 1
EndSplineSet
EndChar
StartChar: Adieresis
Encoding: 196 196
Width: 805
Flags: W
HStem: 0 21<696 717>
VStem: 352.421 9.54575<735 742> 684.421 9.54572<735 742>
DStem: 476.624 770.704 488 800 543.553 535.571 717 0 549.603 514.317 488 800 696 0 717 0
Fore
602 758 m 5
 595.638 717.979 578.038 701.658 562 682 c 5
 590 624 752 680 672 798 c 5
 724 668 598 648 602 758 c 5
270 758 m 5
 263.638 717.979 246.038 701.658 230 682 c 5
 258 624 420 680 340 798 c 5
 392 668 266 648 270 758 c 5
EndSplineSet
Ref: 65 N 1 0 0 1 0 0
EndChar
StartChar: Aring
Encoding: 197 197
Width: 617
Flags: W
HStem: 0 16.8<549.84 566.43>
VStem: 434.421 9.54575<735 742>
DStem: 376.533 616.563 385.52 640 429.407 428.457 566.43 0 434.186 411.454 385.52 640 549.84 0 566.43 0
Fore
352 758 m 1
 345.638 717.979 328.038 701.658 312 682 c 1
 340 624 502 680 422 798 c 1
 474 668 348 648 352 758 c 1
EndSplineSet
Ref: 65 N 0.79 0 0 0.8 0 0
EndChar
StartChar: Odieresis
Encoding: 214 214
Width: 616
Flags: W
HStem: 0.863789 21.0962<150.15 153.23>
VStem: 3.15618 18.3563<202.44 242.76> 164.421 9.54575<733 740> 407.998 8.4526<444.36 457.8> 496.421 9.54575<733 740>
Fore
414 756 m 1
 407.638 715.979 390.038 699.658 374 680 c 1
 402 622 564 678 484 796 c 1
 536 666 410 646 414 756 c 1
82 756 m 1
 75.6377 715.979 58.0381 699.658 42 680 c 1
 70 622 232 678 152 796 c 1
 204 666 78 646 82 756 c 1
EndSplineSet
Ref: 79 S 0.77 0 0 0.84 0 0
EndChar
StartChar: adieresis
Encoding: 228 228
Width: 438
Flags: W
HStem: -0.245076 9.41101<115 131>
VStem: 3 15<174.25 204.306>
Fore
32 518 m 5
 179.781 576.184 248.295 512.127 328 628 c 5
 314 596 296 562 304 528 c 5
 206.004 550.208 119.77 531.458 32 518 c 5
EndSplineSet
Ref: 97 N 1 0 0 1 0 0
EndChar
StartChar: aring
Encoding: 229 229
Width: 438
Flags: W
HStem: -0.245076 9.41101<115 131>
VStem: 3 15<174.25 204.306> 282.421 9.54575<587 594>
Fore
200 610 m 5
 193.638 569.98 176.038 553.658 160 534 c 5
 188 476 350 532 270 650 c 5
 322 520 196 500 200 610 c 5
EndSplineSet
Ref: 97 N 1 0 0 1 0 0
EndChar
StartChar: odieresis
Encoding: 246 246
Width: 379
Flags: W
HStem: 0.743218 15.736<125.218 127.759>
VStem: 3.95348 15.1433<151.102 181.177> 337.933 6.97308<331.554 341.579>
Fore
32 518 m 1
 178.698 575.77 286.345 526.212 328 628 c 1
 314 596 296 562 304 528 c 1
 206.004 550.208 119.77 531.458 32 518 c 1
EndSplineSet
Ref: 111 N 1 0 0 1 0 0
EndChar
